<?xml version="1.0" encoding="utf-8"?>
<!-- Generator: Adobe Illustrator 14.0.0, SVG Export Plug-In . SVG Version: 6.00 Build 43363)  -->
<!DOCTYPE svg PUBLIC "-//W3C//DTD SVG 1.1//EN" "http://www.w3.org/Graphics/SVG/1.1/DTD/svg11.dtd">
<svg version="1.1" id="Ebene_1" xmlns="http://www.w3.org/2000/svg" xmlns:xlink="http://www.w3.org/1999/xlink" x="0px" y="0px"
	 width="498.027px" height="235.276px" viewBox="0 0 498.027 235.276" enable-background="new 0 0 498.027 235.276"
	 xml:space="preserve">
<g>
	<path fill="none" stroke="#000000" stroke-width="4.5876" d="M466.675,50.911l-27.519,15.888v31.775l27.519,15.888l27.519-15.888
		V66.799L466.675,50.911L466.675,50.911z M448.185,70.202v24.97 M464.871,60.495l21.623,12.484 M486.494,92.394l-21.623,12.485"/>
	<path fill="#0077AA" d="M356.457,82.481c0,0.006,0,0.012,0,0.018c0,19.116,15.496,34.612,34.611,34.612
		c19.116,0,34.612-15.496,34.612-34.612c0-0.006,0-0.012,0-0.018H356.457L356.457,82.481z"/>
	<g>
		<defs>
			<rect id="SVGID_1_" x="-1.417" width="532.914" height="235.276"/>
		</defs>
		<clipPath id="SVGID_2_">
			<use xlink:href="#SVGID_1_"  overflow="visible"/>
		</clipPath>
		<path clip-path="url(#SVGID_2_)" fill="none" stroke="#000000" stroke-width="4.6807" d="M419.023,98.988
			c-8.913,15.437-28.65,20.728-44.086,11.816c-15.436-8.912-20.723-28.65-11.811-44.088c6.91-11.97,20.33-17.833,33.206-15.712
			l26.782-46.39l21.09,12.176l-27.112,46.961C424.429,73.758,425.627,87.551,419.023,98.988L419.023,98.988z"/>
	</g>
	<path d="M20.96,225.278c0-2.521-0.68-4.601-2.2-6.04c-1.2-1.12-2.84-1.84-5.44-2.2l-3.36-0.48c-1.16-0.16-2.08-0.6-2.64-1.12
		c-0.6-0.56-0.84-1.319-0.84-2.04c0-1.96,1.44-3.6,4.4-3.6c1.88,0,4.04,0.24,5.84,1.96l3.52-3.479c-2.44-2.36-5.28-3.32-9.2-3.32
		c-6.16,0-9.92,3.56-9.92,8.64c0,2.4,0.68,4.24,2.04,5.601c1.28,1.239,3.08,2,5.52,2.359l3.44,0.48c1.32,0.2,1.96,0.479,2.52,1
		c0.6,0.56,0.88,1.399,0.88,2.399c0,2.28-1.76,3.521-5.04,3.521c-2.64,0-5.08-0.6-6.88-2.4L0,230.158c2.8,2.84,6.08,3.76,10.4,3.76
		C16.36,233.918,20.96,230.798,20.96,225.278L20.96,225.278z M44.84,205.198H38.8l-5.24,11.479l-5.32-11.479H22.2l8.56,16.8v11.68
		h5.52v-11.68L44.84,205.198L44.84,205.198z M70.08,233.678v-28.479h-5.56v17.439l-11.28-17.439h-4.96v28.479h5.56v-17.479
		l11.28,17.479H70.08L70.08,233.678z M95.04,210.158v-4.96H74.6v4.96h7.44v23.52h5.56v-23.52H95.04L95.04,210.158z M120.319,233.678
		v-28.479h-5.56v11.64h-9.64v-11.64h-5.56v28.479h5.56v-11.92h9.64v11.92H120.319L120.319,233.678z M145.72,233.678v-4.96h-13.2
		v-6.92h11.24v-4.96h-11.24v-6.68h13.2v-4.96h-18.76v28.479H145.72L145.72,233.678z M169.56,225.278c0-2.521-0.68-4.601-2.2-6.04
		c-1.2-1.12-2.84-1.84-5.44-2.2l-3.36-0.48c-1.16-0.16-2.08-0.6-2.64-1.12c-0.6-0.56-0.84-1.319-0.84-2.04c0-1.96,1.44-3.6,4.4-3.6
		c1.88,0,4.04,0.24,5.84,1.96l3.521-3.479c-2.44-2.36-5.28-3.32-9.2-3.32c-6.16,0-9.92,3.56-9.92,8.64c0,2.4,0.68,4.24,2.04,5.601
		c1.28,1.239,3.08,2,5.52,2.359l3.44,0.48c1.32,0.2,1.96,0.479,2.52,1c0.6,0.56,0.88,1.399,0.88,2.399c0,2.28-1.76,3.521-5.04,3.521
		c-2.64,0-5.08-0.6-6.88-2.4l-3.6,3.601c2.8,2.84,6.08,3.76,10.4,3.76C164.959,233.918,169.56,230.798,169.56,225.278
		L169.56,225.278z M193.559,233.678v-4.96h-13.2v-6.92h11.24v-4.96h-11.24v-6.68h13.2v-4.96h-18.76v28.479H193.559L193.559,233.678z
		 M217.318,210.158v-4.96h-20.44v4.96h7.44v23.52h5.56v-23.52H217.318L217.318,210.158z M240.599,233.678v-4.96h-13.2v-6.92h11.24
		v-4.96h-11.24v-6.68h13.2v-4.96h-18.76v28.479H240.599L240.599,233.678z M266.039,224.918h-5.641c-0.6,2.44-2.12,4.04-4.8,4.04
		c-1.52,0-2.72-0.48-3.56-1.48c-1.16-1.239-1.4-2.52-1.4-8.04c0-5.52,0.24-6.8,1.4-8.039c0.84-1.001,2.04-1.48,3.56-1.48
		c2.68,0,4.2,1.6,4.8,4.04h5.641c-0.96-5.8-5-9-10.48-9c-3.04,0-5.6,1.04-7.68,3.12c-1.24,1.24-2,2.64-2.32,4.28
		c-0.32,1.6-0.48,3.96-0.48,7.079c0,3.12,0.16,5.48,0.48,7.08c0.32,1.601,1.08,3.04,2.32,4.28c2.08,2.08,4.64,3.12,7.68,3.12
		C260.999,233.918,265.079,230.718,266.039,224.918L266.039,224.918z M291.599,233.678v-28.479h-5.56v11.64h-9.641v-11.64h-5.56
		v28.479h5.56v-11.92h9.641v11.92H291.599L291.599,233.678z M320.037,233.678v-28.479h-5.56v17.439l-11.28-17.439h-4.96v28.479
		h5.561v-17.479l11.279,17.479H320.037L320.037,233.678z M332.237,233.678v-28.479h-5.56v28.479H332.237L332.237,233.678z
		 M361.918,233.678l-10.12-17.16l9.439-11.319h-6.76l-10.04,12.399v-12.399h-5.56v28.479h5.56v-8.56l3.68-4.4l7.32,12.96H361.918
		L361.918,233.678z"/>
	<path d="M20.68,171.318c0-4.28,0.32-8.2-2.88-11.4c-1.88-1.88-4.56-2.72-7.52-2.72H0v28.479h10.28c2.96,0,5.64-0.84,7.52-2.72
		C21,179.758,20.68,175.598,20.68,171.318L20.68,171.318z M15.12,171.318c0,4.319-0.16,6.359-1.2,7.64
		c-0.96,1.16-2.24,1.76-4.16,1.76h-4.2v-18.56h4.2c1.92,0,3.2,0.6,4.16,1.76C14.96,165.198,15.12,166.998,15.12,171.318
		L15.12,171.318z M47.92,185.678l-6.36-12.279c2.76-1,5.2-3.48,5.2-7.48c0-4.76-3.44-8.72-9.24-8.72H26.36v28.479h5.56v-11.359h4
		l5.56,11.359H47.92L47.92,185.678z M41.2,165.918c0,2.2-1.6,3.76-4.04,3.76h-5.24v-7.52h5.24
		C39.6,162.158,41.2,163.718,41.2,165.918L41.2,165.918z M57.879,185.678v-5.92h-5.96v5.92H57.879L57.879,185.678z M105.119,157.198
		h-5.8l-4.439,17.96l-5.2-17.96h-4.16l-5.2,17.96l-4.4-17.96h-5.8l7.6,28.479h4.64l5.24-17.28l5.24,17.28h4.64L105.119,157.198
		L105.119,157.198z M114.239,185.678v-28.479h-5.56v28.479H114.239L114.239,185.678z M139.358,185.678v-4.96h-12.92v-23.52h-5.56
		v28.479H139.358L139.358,185.678z M164.638,185.678v-28.479h-5.56v11.64h-9.64v-11.64h-5.559v28.479h5.559v-11.92h9.64v11.92
		H164.638L164.638,185.678z M193.278,185.678l-10.4-28.479h-4.36l-10.36,28.479h5.8l1.72-5.04h10.12l1.68,5.04H193.278
		L193.278,185.678z M184.317,175.958h-7.08l3.6-10.36L184.317,175.958L184.317,175.958z M218.357,185.678l-6.36-12.279
		c2.76-1,5.2-3.48,5.2-7.48c0-4.76-3.44-8.72-9.24-8.72h-11.16v28.479h5.56v-11.359h4l5.56,11.359H218.357L218.357,185.678z
		 M211.638,165.918c0,2.2-1.6,3.76-4.04,3.76h-5.24v-7.52h5.24C210.038,162.158,211.638,163.718,211.638,165.918L211.638,165.918z
		 M248.757,185.678v-28.479h-5.48l-7.4,15.399l-7.44-15.399h-5.48v28.479h5.56v-16.6l5.48,10.8h3.76l5.44-10.8v16.6H248.757
		L248.757,185.678z"/>
	<path d="M82.655,58.812c0-17.107,1.279-32.774-11.511-45.564C63.63,5.734,52.918,2.376,41.088,2.376H0v113.831h41.088
		c11.831,0,22.542-3.357,30.056-10.871C83.934,92.546,82.655,75.919,82.655,58.812L82.655,58.812z M60.433,58.812
		c0,17.266-0.64,25.42-4.796,30.536c-3.837,4.637-8.953,7.035-16.627,7.035H22.223V22.201h16.787c7.674,0,12.79,2.398,16.627,7.034
		C59.793,34.352,60.433,41.546,60.433,58.812L60.433,58.812z M231.338,2.376h-23.182L190.411,74.16L169.627,2.376H153L132.217,74.16
		L114.631,2.376H91.449l30.376,113.831h18.546l20.943-69.065l20.944,69.065h18.545L231.338,2.376L231.338,2.376z M319.108,82.634
		c0-10.072-2.718-18.386-8.793-24.141c-4.796-4.477-11.351-7.354-21.743-8.793l-13.429-1.918c-4.637-0.639-8.313-2.398-10.552-4.476
		c-2.398-2.238-3.357-5.276-3.357-8.154c0-7.834,5.755-14.389,17.586-14.389c7.515,0,16.147,0.959,23.342,7.834l14.068-13.909
		c-9.752-9.433-21.103-13.27-36.771-13.27c-24.62,0-39.649,14.229-39.649,34.533c0,9.592,2.718,16.947,8.154,22.382
		c5.116,4.956,12.31,7.994,22.062,9.433l13.749,1.918c5.276,0.799,7.834,1.918,10.072,3.997c2.397,2.238,3.517,5.596,3.517,9.592
		c0,9.113-7.033,14.069-20.144,14.069c-10.552,0-20.304-2.398-27.498-9.592l-14.389,14.388
		c11.191,11.351,24.301,15.029,41.567,15.029C300.724,117.167,319.108,104.696,319.108,82.634L319.108,82.634z"/>
</g>
</svg>
