<?xml version="1.0" encoding="utf-8"?>
<!-- Generator: Adobe Illustrator 14.0.0, SVG Export Plug-In . SVG Version: 6.00 Build 43363)  -->
<!DOCTYPE svg PUBLIC "-//W3C//DTD SVG 1.1//EN" "http://www.w3.org/Graphics/SVG/1.1/DTD/svg11.dtd">
<svg version="1.1" id="Ebene_1" xmlns="http://www.w3.org/2000/svg" xmlns:xlink="http://www.w3.org/1999/xlink" x="0px" y="0px"
	 width="532.914px" height="235.276px" viewBox="0 0 532.914 235.276" enable-background="new 0 0 532.914 235.276"
	 xml:space="preserve">
<g>
	<path d="M188.864,225.278c0-2.521-0.68-4.601-2.2-6.04c-1.2-1.12-2.84-1.84-5.44-2.2l-3.36-0.48c-1.16-0.16-2.08-0.6-2.64-1.12
		c-0.6-0.56-0.84-1.319-0.84-2.04c0-1.96,1.44-3.6,4.4-3.6c1.88,0,4.04,0.24,5.84,1.96l3.52-3.479c-2.44-2.36-5.28-3.32-9.2-3.32
		c-6.16,0-9.92,3.56-9.92,8.64c0,2.4,0.68,4.24,2.04,5.601c1.28,1.239,3.08,2,5.52,2.359l3.44,0.48c1.32,0.2,1.96,0.479,2.52,1
		c0.6,0.56,0.88,1.399,0.88,2.399c0,2.28-1.76,3.521-5.04,3.521c-2.64,0-5.08-0.6-6.88-2.4l-3.6,3.601c2.8,2.84,6.08,3.76,10.4,3.76
		C184.264,233.918,188.864,230.798,188.864,225.278L188.864,225.278z M212.744,205.198h-6.04l-5.24,11.479l-5.32-11.479h-6.04
		l8.56,16.8v11.68h5.52v-11.68L212.744,205.198L212.744,205.198z M237.983,233.678v-28.479h-5.56v17.439l-11.28-17.439h-4.96v28.479
		h5.56v-17.479l11.28,17.479H237.983L237.983,233.678z M262.943,210.158v-4.96h-20.44v4.96h7.44v23.52h5.56v-23.52H262.943
		L262.943,210.158z M288.223,233.678v-28.479h-5.56v11.64h-9.641v-11.64h-5.56v28.479h5.56v-11.92h9.641v11.92H288.223
		L288.223,233.678z M313.624,233.678v-4.96h-13.2v-6.92h11.239v-4.96h-11.239v-6.68h13.2v-4.96h-18.761v28.479H313.624
		L313.624,233.678z M337.463,225.278c0-2.521-0.681-4.601-2.2-6.04c-1.2-1.12-2.84-1.84-5.44-2.2l-3.359-0.48
		c-1.16-0.16-2.08-0.6-2.641-1.12c-0.6-0.56-0.84-1.319-0.84-2.04c0-1.96,1.44-3.6,4.4-3.6c1.88,0,4.04,0.24,5.84,1.96l3.52-3.479
		c-2.439-2.36-5.279-3.32-9.199-3.32c-6.16,0-9.92,3.56-9.92,8.64c0,2.4,0.68,4.24,2.039,5.601c1.28,1.239,3.08,2,5.521,2.359
		l3.439,0.48c1.32,0.2,1.961,0.479,2.521,1c0.6,0.56,0.88,1.399,0.88,2.399c0,2.28-1.76,3.521-5.04,3.521c-2.64,0-5.08-0.6-6.88-2.4
		l-3.6,3.601c2.8,2.84,6.08,3.76,10.399,3.76C332.863,233.918,337.463,230.798,337.463,225.278L337.463,225.278z M361.462,233.678
		v-4.96h-13.2v-6.92h11.24v-4.96h-11.24v-6.68h13.2v-4.96h-18.761v28.479H361.462L361.462,233.678z M385.222,210.158v-4.96h-20.44
		v4.96h7.44v23.52h5.56v-23.52H385.222L385.222,210.158z M408.502,233.678v-4.96h-13.2v-6.92h11.24v-4.96h-11.24v-6.68h13.2v-4.96
		h-18.761v28.479H408.502L408.502,233.678z M433.942,224.918h-5.64c-0.601,2.44-2.12,4.04-4.8,4.04c-1.521,0-2.721-0.48-3.561-1.48
		c-1.16-1.239-1.399-2.52-1.399-8.04c0-5.52,0.239-6.8,1.399-8.039c0.84-1.001,2.04-1.48,3.561-1.48c2.68,0,4.199,1.6,4.8,4.04h5.64
		c-0.96-5.8-5-9-10.479-9c-3.04,0-5.601,1.04-7.681,3.12c-1.239,1.24-2,2.64-2.319,4.28c-0.32,1.6-0.48,3.96-0.48,7.079
		c0,3.12,0.16,5.48,0.48,7.08c0.319,1.601,1.08,3.04,2.319,4.28c2.08,2.08,4.641,3.12,7.681,3.12
		C428.902,233.918,432.982,230.718,433.942,224.918L433.942,224.918z M459.502,233.678v-28.479h-5.561v11.64h-9.64v-11.64h-5.561
		v28.479h5.561v-11.92h9.64v11.92H459.502L459.502,233.678z M487.942,233.678v-28.479h-5.56v17.439l-11.28-17.439h-4.96v28.479h5.56
		v-17.479l11.28,17.479H487.942L487.942,233.678z M500.142,233.678v-28.479h-5.56v28.479H500.142L500.142,233.678z M529.821,233.678
		l-10.12-17.16l9.44-11.319h-6.76l-10.04,12.399v-12.399h-5.561v28.479h5.561v-8.56l3.68-4.4l7.32,12.96H529.821L529.821,233.678z"
		/>
	<path d="M188.584,171.318c0-4.28,0.32-8.2-2.88-11.4c-1.88-1.88-4.56-2.72-7.52-2.72h-10.28v28.479h10.28
		c2.96,0,5.64-0.84,7.52-2.72C188.904,179.758,188.584,175.598,188.584,171.318L188.584,171.318z M183.024,171.318
		c0,4.319-0.16,6.359-1.2,7.64c-0.96,1.16-2.24,1.76-4.16,1.76h-4.2v-18.56h4.2c1.92,0,3.2,0.6,4.16,1.76
		C182.864,165.198,183.024,166.998,183.024,171.318L183.024,171.318z M215.824,185.678l-6.36-12.279c2.76-1,5.2-3.48,5.2-7.48
		c0-4.76-3.44-8.72-9.24-8.72h-11.16v28.479h5.56v-11.359h4l5.56,11.359H215.824L215.824,185.678z M209.104,165.918
		c0,2.2-1.6,3.76-4.04,3.76h-5.24v-7.52h5.24C207.504,162.158,209.104,163.718,209.104,165.918L209.104,165.918z M225.783,185.678
		v-5.92h-5.96v5.92H225.783L225.783,185.678z M273.023,157.198h-5.8l-4.44,17.96l-5.2-17.96h-4.16l-5.2,17.96l-4.4-17.96h-5.8
		l7.6,28.479h4.64l5.24-17.28l5.24,17.28h4.64L273.023,157.198L273.023,157.198z M282.142,185.678v-28.479h-5.56v28.479H282.142
		L282.142,185.678z M307.262,185.678v-4.96h-12.92v-23.52h-5.561v28.479H307.262L307.262,185.678z M332.542,185.678v-28.479h-5.561
		v11.64h-9.64v-11.64h-5.561v28.479h5.561v-11.92h9.64v11.92H332.542L332.542,185.678z M361.182,185.678l-10.4-28.479h-4.359
		l-10.36,28.479h5.8l1.721-5.04h10.119l1.681,5.04H361.182L361.182,185.678z M352.222,175.958h-7.08l3.6-10.36L352.222,175.958
		L352.222,175.958z M386.261,185.678l-6.36-12.279c2.76-1,5.2-3.48,5.2-7.48c0-4.76-3.439-8.72-9.24-8.72h-11.16v28.479h5.561
		v-11.359h4l5.56,11.359H386.261L386.261,185.678z M379.541,165.918c0,2.2-1.6,3.76-4.039,3.76h-5.24v-7.52h5.24
		C377.941,162.158,379.541,163.718,379.541,165.918L379.541,165.918z M416.662,185.678v-28.479h-5.48l-7.4,15.399l-7.439-15.399
		h-5.48v28.479h5.561v-16.6l5.479,10.8h3.761l5.439-10.8v16.6H416.662L416.662,185.678z"/>
	<path fill="none" stroke="#000000" stroke-width="4.5876" d="M111.635,50.911L84.117,66.799v31.775l27.518,15.888l27.519-15.888
		V66.799L111.635,50.911L111.635,50.911z M93.146,70.202v24.97 M109.831,60.495l21.625,12.484 M131.456,92.394l-21.625,12.485"/>
	<path fill="#0077AA" d="M1.418,82.481c0,0.006,0,0.012,0,0.018c0,19.116,15.496,34.612,34.612,34.612s34.612-15.496,34.612-34.612
		c0-0.006,0-0.012,0-0.018H1.418L1.418,82.481z"/>
	<g>
		<defs>
			<rect id="SVGID_1_" width="532.914" height="235.276"/>
		</defs>
		<clipPath id="SVGID_2_">
			<use xlink:href="#SVGID_1_"  overflow="visible"/>
		</clipPath>
		<path clip-path="url(#SVGID_2_)" fill="none" stroke="#000000" stroke-width="4.6807" d="M63.984,98.988
			c-8.913,15.437-28.651,20.728-44.086,11.816c-15.435-8.912-20.723-28.65-11.81-44.088c6.911-11.97,20.33-17.833,33.206-15.712
			l26.783-46.39l21.089,12.176L62.053,63.751C69.39,73.758,70.587,87.551,63.984,98.988L63.984,98.988z"/>
	</g>
	<path d="M250.559,58.812c0-17.107,1.279-32.774-11.511-45.564c-7.514-7.514-18.226-10.872-30.057-10.872h-41.087v113.831h41.087
		c11.831,0,22.543-3.357,30.057-10.871C251.838,92.546,250.559,75.919,250.559,58.812L250.559,58.812z M228.336,58.812
		c0,17.266-0.639,25.42-4.796,30.536c-3.837,4.637-8.953,7.035-16.627,7.035h-16.787V22.201h16.787
		c7.674,0,12.79,2.398,16.627,7.034C227.697,34.352,228.336,41.546,228.336,58.812L228.336,58.812z M399.243,2.376h-23.182
		L358.315,74.16L337.531,2.376h-16.627L300.12,74.16L282.534,2.376h-23.182l30.376,113.831h18.546l20.943-69.065l20.943,69.065
		h18.546L399.243,2.376L399.243,2.376z M487.013,82.634c0-10.072-2.718-18.386-8.793-24.141c-4.797-4.477-11.353-7.354-21.743-8.793
		l-13.43-1.918c-4.636-0.639-8.313-2.398-10.553-4.476c-2.397-2.238-3.356-5.276-3.356-8.154c0-7.834,5.756-14.389,17.586-14.389
		c7.514,0,16.148,0.959,23.342,7.834l14.069-13.909c-9.752-9.433-21.104-13.27-36.771-13.27c-24.621,0-39.648,14.229-39.648,34.533
		c0,9.592,2.718,16.947,8.152,22.382c5.116,4.956,12.312,7.994,22.063,9.433l13.749,1.918c5.276,0.799,7.834,1.918,10.073,3.997
		c2.397,2.238,3.517,5.596,3.517,9.592c0,9.113-7.035,14.069-20.144,14.069c-10.553,0-20.306-2.398-27.499-9.592l-14.39,14.388
		c11.192,11.351,24.301,15.029,41.568,15.029C468.627,117.167,487.013,104.696,487.013,82.634L487.013,82.634z"/>
</g>
</svg>
